<svg width="100" height="100" viewBox="0 0 100 100" fill="none" xmlns="http://www.w3.org/2000/svg">
  <circle cx="50" cy="50" r="45" fill="#1A73E8"/>
  <path d="M50.4 74C45.2 74 40.6667 72.8 36.8 70.4C32.9333 68 29.9333 64.6667 27.8 60.4C25.6667 56.1333 24.6 51.2 24.6 45.6C24.6 40 25.6667 35.0667 27.8 30.8C29.9333 26.5333 32.9333 23.2 36.8 20.8C40.6667 18.4 45.2 17.2 50.4 17.2C54.4 17.2 58 17.8667 61.2 19.2C64.4 20.5333 67.0667 22.4 69.2 24.8L62.4 32C59.2 28.2667 55.3333 26.4 50.8 26.4C47.6 26.4 44.8 27.2 42.4 28.8C40 30.4 38.1333 32.6667 36.8 35.6C35.4667 38.5333 34.8 41.8667 34.8 45.6C34.8 49.3333 35.4667 52.6667 36.8 55.6C38.1333 58.5333 40 60.8 42.4 62.4C44.8 64 47.6 64.8 50.8 64.8C55.3333 64.8 59.2 62.9333 62.4 59.2L69.2 66.4C67.0667 68.8 64.4 70.6667 61.2 72C58 73.3333 54.4 74 50.4 74Z" fill="white"/>
  <path d="M66 44H74C74 47.3137 71.3137 50 68 50C66.3431 50 65 51.3431 65 53V70C65 72.7614 67.2386 75 70 75H80" stroke="white" stroke-width="6" stroke-linecap="round"/>
</svg> 